<svg xmlns="http://www.w3.org/2000/svg" viewBox="0 0 144 83.71"><defs><style>.cls-1{fill:#fff;}</style></defs><g id="Layer_2" data-name="Layer 2"><g id="Layer_3" data-name="Layer 3"><path class="cls-1" d="M30.77,21.36h-9S13.72,51.28,12.3,56.49H20L23.4,44c15.78,0,19.48-4.43,20.92-10.61C45.49,28.37,44.52,21.36,30.77,21.36Zm5.48,11.76c-1.89,6.05-5.73,7.11-11.84,7.13,1.5-5.54,3.06-11.31,4.16-15.4h1.35C37.19,24.85,37.79,28.17,36.25,33.12Zm97.46-.47c-3,0-6.32,3-8.08,5.1l1.35-4.7h-7.49l-6.32,23.44h7.71l3-10.93a20.65,20.65,0,0,1,1.15-3A14.09,14.09,0,0,1,128.07,38,3.36,3.36,0,0,1,130.94,37c.75.11,1,.74,1.05,1.39A2.86,2.86,0,0,0,135.11,41a3.64,3.64,0,0,0,3.49-3.88C138.6,35.18,138,32.65,133.71,32.65Zm-40.77.4H73.76l-1,3.85h10.7c-2.35,3.63-14.75,12.19-14.75,19.59H88.3l1.27-4.71H77.48C80.35,46.26,90.73,40.34,92.94,33.05Zm13.29,8.76c-1.81,1.42-3.77,1.94-7.26,2.07a11.14,11.14,0,0,1,4-6.38,6.27,6.27,0,0,1,3.38-1.32c1.87,0,2.28,1,2.28,1.71A5.27,5.27,0,0,1,106.23,41.81Zm4.11,7.38c-.4.4-3.79,3.7-7.38,3.7a4.36,4.36,0,0,1-4.6-4.2A11,11,0,0,1,98.42,47a27,27,0,0,0,9.25-1.33c4-1.3,6.66-4.73,6.66-8.06s-3.51-5.09-7.57-5.09C98.6,32.5,91,39.73,91,48.21c0,5.41,4,9.06,9.79,9.06A15.71,15.71,0,0,0,108,55.55a14.24,14.24,0,0,0,3.64-2.79ZM144,31.42c0,20.38-27.94,42-64.42,49.58a126.58,126.58,0,0,1-25.37,2.71,105.52,105.52,0,0,1-12.12-.66l12-46.15h7.5L56.34,56.49H64c.94-3.49,4.3-16.25,6.28-23.44H55.11l2.3-8.94a28.13,28.13,0,0,1,1.11-3.44c1.25-3.19,3.18-5,5.49-5.39,1.87-.29,2.55.88,2.56,1.62,0,1.47-1.16,1.77-1.14,3.74a3.64,3.64,0,0,0,3.95,3.65c2.92,0,4.75-2,4.9-5a4.77,4.77,0,0,0-2.37-4.55c-2.29-1.61-6.39-2-9.14-1.71-5.06.46-8.67,3.6-10.92,7.4-1.73,2.95-2.7,5.56-4.45,12.32,0,0-8.91,34.2-12.78,49.14C16.3,78.25,3.11,69.29.48,56.66A21.93,21.93,0,0,1,0,52C0,31.7,26.85,10.33,63.25,2.73A127.69,127.69,0,0,1,89.17,0c28.21,0,50.89,10.22,54.37,26.93A21.86,21.86,0,0,1,144,31.42Z"/></g></g></svg>