<?xml version="1.0" encoding="utf-8"?>
<!-- Generator: Adobe Illustrator 24.3.0, SVG Export Plug-In . SVG Version: 6.00 Build 0)  -->
<svg version="1.1" id="Lag_1" xmlns="http://www.w3.org/2000/svg" xmlns:xlink="http://www.w3.org/1999/xlink" x="0px" y="0px"
	 viewBox="0 0 117.1 141.7" style="enable-background:new 0 0 117.1 141.7;" xml:space="preserve">
<style type="text/css">
	.st0{fill:url(#SVGID_1_);}
	.st1{fill:url(#SVGID_2_);}
	.st2{fill:url(#SVGID_3_);}
	.st3{fill:url(#SVGID_4_);}
	.st4{fill:url(#SVGID_5_);}
	.st5{fill:url(#SVGID_6_);}
	.st6{fill:url(#SVGID_7_);}
	.st7{fill:url(#SVGID_8_);}
	.st8{fill:url(#SVGID_9_);}
	.st9{fill:url(#SVGID_10_);}
	.st10{fill:url(#SVGID_11_);}
	.st11{fill:url(#SVGID_12_);}
	.st12{fill:url(#SVGID_13_);}
	.st13{fill:url(#SVGID_14_);}
	.st14{fill:url(#SVGID_15_);}
	.st15{fill:url(#SVGID_16_);}
</style>
<g>
	<linearGradient id="SVGID_1_" gradientUnits="userSpaceOnUse" x1="-50.8802" y1="70.8427" x2="116.6367" y2="70.8427">
		<stop  offset="0" style="stop-color:#E7267A"/>
		<stop  offset="0.5374" style="stop-color:#E7267A"/>
		<stop  offset="1" style="stop-color:#672162"/>
	</linearGradient>
	<path class="st0" d="M81.1,55.1c-0.4-0.1-0.7-0.3-1-0.3c-0.8-0.2-1.5-0.3-2.5-0.4L77,54.2l-0.5,0c-3.6,0.1-7.1-1.3-9.7-3.8
		c-2.5-2.5-3.9-5.9-3.8-9.5l0-0.4l0-0.4c-0.1-0.9-0.2-1.9-0.5-3c-0.1-0.4-0.2-0.8-0.4-1.1c-0.8-2.4-2.2-4.7-4-6.5
		c-3.1-3.1-7.3-4.9-11.7-4.9c-4.4,0-8.6,1.7-11.7,4.9c-3.1,3.1-4.9,7.3-4.9,11.7c0,4.4,1.7,8.6,4.9,11.7c1.8,1.8,4,3.2,6.4,4
		c0.4,0.2,0.8,0.3,1.2,0.4c1.1,0.3,2.2,0.4,3,0.5l0.4,0l0.6,0c3.5,0,6.8,1.4,9.3,3.8c2.3,2.3,3.6,5.1,3.8,8.3l0,0.3l0,0.4
		c0.1,3.6-1.3,6.9-3.8,9.5c-2.6,2.6-6.1,4-9.7,3.8l-0.5,0L44.6,84c-0.9,0.1-1.7,0.3-2.5,0.4c-0.4,0.1-0.8,0.2-1.2,0.4
		c-2.4,0.8-4.6,2.2-6.4,4c-3.1,3.1-4.9,7.3-4.9,11.7c0,4.4,1.7,8.6,4.8,11.7c3.1,3.1,7.3,4.9,11.7,4.9c4.4,0,8.6-1.7,11.7-4.9
		c1.8-1.8,3.2-4.1,4-6.5c0.2-0.4,0.3-0.8,0.4-1.1c0.2-0.8,0.3-1.6,0.4-2.5l0.1-0.5l0-0.5c-0.1-3.7,1.2-7.1,3.8-9.7
		c2.5-2.5,5.8-3.8,9.2-3.8l0.7,0l0.4,0c0.9-0.1,1.9-0.2,3-0.5c0.3-0.1,0.7-0.2,1-0.3c2.5-0.8,4.7-2.2,6.6-4
		c3.1-3.1,4.9-7.3,4.9-11.7c0-4.4-1.7-8.6-4.9-11.7C85.8,57.3,83.5,55.9,81.1,55.1z"/>
	<linearGradient id="SVGID_2_" gradientUnits="userSpaceOnUse" x1="-50.8802" y1="70.8432" x2="116.6367" y2="70.8432">
		<stop  offset="0" style="stop-color:#E7267A"/>
		<stop  offset="0.5374" style="stop-color:#E7267A"/>
		<stop  offset="1" style="stop-color:#672162"/>
	</linearGradient>
	<path class="st1" d="M28.3,59.1c-3.1-3.1-7.3-4.8-11.7-4.8S8,56,4.8,59.1C1.7,62.3,0,66.4,0,70.8c0,4.4,1.7,8.6,4.8,11.7
		c3.1,3.1,7.3,4.9,11.7,4.9c4.4,0,8.6-1.7,11.7-4.9c3.1-3.1,4.9-7.3,4.9-11.7C33.1,66.4,31.4,62.3,28.3,59.1z"/>
	<linearGradient id="SVGID_3_" gradientUnits="userSpaceOnUse" x1="-50.8802" y1="130.1099" x2="116.6367" y2="130.1099">
		<stop  offset="0" style="stop-color:#E7267A"/>
		<stop  offset="0.5374" style="stop-color:#E7267A"/>
		<stop  offset="1" style="stop-color:#672162"/>
	</linearGradient>
	<path class="st2" d="M16.5,118.6c-3.1,0-6,1.2-8.1,3.4C6.2,124.1,5,127,5,130.1c0,3.1,1.2,6,3.4,8.1c2.2,2.2,5.1,3.4,8.1,3.4
		c3.1,0,6-1.2,8.1-3.4c2.2-2.2,3.4-5.1,3.4-8.1c0-3.1-1.2-6-3.4-8.1C22.5,119.8,19.6,118.6,16.5,118.6z"/>
	<linearGradient id="SVGID_4_" gradientUnits="userSpaceOnUse" x1="-50.8802" y1="11.5114" x2="116.6367" y2="11.5114">
		<stop  offset="0" style="stop-color:#E7267A"/>
		<stop  offset="0.5374" style="stop-color:#E7267A"/>
		<stop  offset="1" style="stop-color:#672162"/>
	</linearGradient>
	<path class="st3" d="M16.6,23c3.1,0,6-1.2,8.1-3.4c4.5-4.5,4.5-11.8,0-16.3C22.5,1.2,19.6,0,16.6,0c-3.1,0-6,1.2-8.1,3.4
		c-4.5,4.5-4.5,11.8,0,16.3C10.6,21.8,13.5,23,16.6,23z"/>
	<linearGradient id="SVGID_5_" gradientUnits="userSpaceOnUse" x1="-50.8802" y1="100.5382" x2="116.6367" y2="100.5382">
		<stop  offset="0" style="stop-color:#E7267A"/>
		<stop  offset="0.5374" style="stop-color:#E7267A"/>
		<stop  offset="1" style="stop-color:#672162"/>
	</linearGradient>
	<path class="st4" d="M113.7,92.4L113.7,92.4c-2.2-2.2-5.1-3.4-8.1-3.4c-3.1,0-6,1.2-8.1,3.4c-4.5,4.5-4.5,11.8,0,16.3
		c2.2,2.2,5.1,3.4,8.1,3.4c3.1,0,6-1.2,8.1-3.4C118.2,104.2,118.2,96.9,113.7,92.4z"/>
	<linearGradient id="SVGID_6_" gradientUnits="userSpaceOnUse" x1="-50.8802" y1="130.2212" x2="116.6367" y2="130.2212">
		<stop  offset="0" style="stop-color:#E7267A"/>
		<stop  offset="0.5374" style="stop-color:#E7267A"/>
		<stop  offset="1" style="stop-color:#672162"/>
	</linearGradient>
	<path class="st5" d="M75.9,118.7c-3.1,0-6,1.2-8.1,3.4c-2.2,2.2-3.4,5.1-3.4,8.1c0,3.1,1.2,6,3.4,8.1c2.2,2.2,5.1,3.4,8.1,3.4
		c3.1,0,6-1.2,8.1-3.4c2.2-2.2,3.4-5.1,3.4-8.1c0-3.1-1.2-6-3.4-8.1C81.9,119.9,79,118.7,75.9,118.7z"/>
	<linearGradient id="SVGID_7_" gradientUnits="userSpaceOnUse" x1="-50.8802" y1="11.5114" x2="116.6367" y2="11.5114">
		<stop  offset="0" style="stop-color:#E7267A"/>
		<stop  offset="0.5374" style="stop-color:#E7267A"/>
		<stop  offset="1" style="stop-color:#672162"/>
	</linearGradient>
	<path class="st6" d="M76,23c3.1,0,6-1.2,8.1-3.4c4.5-4.5,4.5-11.8,0-16.3C81.9,1.2,79,0,76,0c-3.1,0-6,1.2-8.1,3.4
		c-2.2,2.2-3.4,5.1-3.4,8.1c0,3.1,1.2,6,3.4,8.1C70,21.8,72.9,23,76,23z"/>
	<linearGradient id="SVGID_8_" gradientUnits="userSpaceOnUse" x1="-50.8802" y1="41.1055" x2="116.6367" y2="41.1055">
		<stop  offset="0" style="stop-color:#E7267A"/>
		<stop  offset="0.5374" style="stop-color:#E7267A"/>
		<stop  offset="1" style="stop-color:#672162"/>
	</linearGradient>
	<path class="st7" d="M105.6,52.6c3.1,0,6-1.2,8.1-3.4c4.5-4.5,4.5-11.8,0-16.3c-2.2-2.2-5.1-3.4-8.1-3.4c-3.1,0-6,1.2-8.1,3.4
		c-4.5,4.5-4.5,11.8,0,16.3C99.6,51.4,102.5,52.6,105.6,52.6z"/>
	<linearGradient id="SVGID_9_" gradientUnits="userSpaceOnUse" x1="-50.8802" y1="70.8427" x2="116.6367" y2="70.8427">
		<stop  offset="0" style="stop-color:#E7267A"/>
		<stop  offset="0.5374" style="stop-color:#E7267A"/>
		<stop  offset="1" style="stop-color:#672162"/>
	</linearGradient>
	<path class="st8" d="M81.1,55.1c-0.4-0.1-0.7-0.3-1-0.3c-0.8-0.2-1.5-0.3-2.5-0.4L77,54.2l-0.5,0c-3.6,0.1-7.1-1.3-9.7-3.8
		c-2.5-2.5-3.9-5.9-3.8-9.5l0-0.4l0-0.4c-0.1-0.9-0.2-1.9-0.5-3c-0.1-0.4-0.2-0.8-0.4-1.1c-0.8-2.4-2.2-4.7-4-6.5
		c-3.1-3.1-7.3-4.9-11.7-4.9c-4.4,0-8.6,1.7-11.7,4.9c-3.1,3.1-4.9,7.3-4.9,11.7c0,4.4,1.7,8.6,4.9,11.7c1.8,1.8,4,3.2,6.4,4
		c0.4,0.2,0.8,0.3,1.2,0.4c1.1,0.3,2.2,0.4,3,0.5l0.4,0l0.6,0c3.5,0,6.8,1.4,9.3,3.8c2.3,2.3,3.6,5.1,3.8,8.3l0,0.3l0,0.4
		c0.1,3.6-1.3,6.9-3.8,9.5c-2.6,2.6-6.1,4-9.7,3.8l-0.5,0L44.6,84c-0.9,0.1-1.7,0.3-2.5,0.4c-0.4,0.1-0.8,0.2-1.2,0.4
		c-2.4,0.8-4.6,2.2-6.4,4c-3.1,3.1-4.9,7.3-4.9,11.7c0,4.4,1.7,8.6,4.8,11.7c3.1,3.1,7.3,4.9,11.7,4.9c4.4,0,8.6-1.7,11.7-4.9
		c1.8-1.8,3.2-4.1,4-6.5c0.2-0.4,0.3-0.8,0.4-1.1c0.2-0.8,0.3-1.6,0.4-2.5l0.1-0.5l0-0.5c-0.1-3.7,1.2-7.1,3.8-9.7
		c2.5-2.5,5.8-3.8,9.2-3.8l0.7,0l0.4,0c0.9-0.1,1.9-0.2,3-0.5c0.3-0.1,0.7-0.2,1-0.3c2.5-0.8,4.7-2.2,6.6-4
		c3.1-3.1,4.9-7.3,4.9-11.7c0-4.4-1.7-8.6-4.9-11.7C85.8,57.3,83.5,55.9,81.1,55.1z"/>
	<linearGradient id="SVGID_10_" gradientUnits="userSpaceOnUse" x1="-50.8802" y1="70.8432" x2="116.6367" y2="70.8432">
		<stop  offset="0" style="stop-color:#E7267A"/>
		<stop  offset="0.5374" style="stop-color:#E7267A"/>
		<stop  offset="1" style="stop-color:#672162"/>
	</linearGradient>
	<path class="st9" d="M28.3,59.1c-3.1-3.1-7.3-4.8-11.7-4.8S8,56,4.8,59.1C1.7,62.3,0,66.4,0,70.8c0,4.4,1.7,8.6,4.8,11.7
		c3.1,3.1,7.3,4.9,11.7,4.9c4.4,0,8.6-1.7,11.7-4.9c3.1-3.1,4.9-7.3,4.9-11.7C33.1,66.4,31.4,62.3,28.3,59.1z"/>
	<linearGradient id="SVGID_11_" gradientUnits="userSpaceOnUse" x1="-50.8802" y1="130.1099" x2="116.6367" y2="130.1099">
		<stop  offset="0" style="stop-color:#E7267A"/>
		<stop  offset="0.5374" style="stop-color:#E7267A"/>
		<stop  offset="1" style="stop-color:#672162"/>
	</linearGradient>
	<path class="st10" d="M16.5,118.6c-3.1,0-6,1.2-8.1,3.4C6.2,124.1,5,127,5,130.1c0,3.1,1.2,6,3.4,8.1c2.2,2.2,5.1,3.4,8.1,3.4
		c3.1,0,6-1.2,8.1-3.4c2.2-2.2,3.4-5.1,3.4-8.1c0-3.1-1.2-6-3.4-8.1C22.5,119.8,19.6,118.6,16.5,118.6z"/>
	<linearGradient id="SVGID_12_" gradientUnits="userSpaceOnUse" x1="-50.8802" y1="11.5114" x2="116.6367" y2="11.5114">
		<stop  offset="0" style="stop-color:#E7267A"/>
		<stop  offset="0.5374" style="stop-color:#E7267A"/>
		<stop  offset="1" style="stop-color:#672162"/>
	</linearGradient>
	<path class="st11" d="M16.6,23c3.1,0,6-1.2,8.1-3.4c4.5-4.5,4.5-11.8,0-16.3C22.5,1.2,19.6,0,16.6,0c-3.1,0-6,1.2-8.1,3.4
		c-4.5,4.5-4.5,11.8,0,16.3C10.6,21.8,13.5,23,16.6,23z"/>
	<linearGradient id="SVGID_13_" gradientUnits="userSpaceOnUse" x1="-50.8802" y1="100.5382" x2="116.6367" y2="100.5382">
		<stop  offset="0" style="stop-color:#E7267A"/>
		<stop  offset="0.5374" style="stop-color:#E7267A"/>
		<stop  offset="1" style="stop-color:#672162"/>
	</linearGradient>
	<path class="st12" d="M113.7,92.4L113.7,92.4c-2.2-2.2-5.1-3.4-8.1-3.4c-3.1,0-6,1.2-8.1,3.4c-4.5,4.5-4.5,11.8,0,16.3
		c2.2,2.2,5.1,3.4,8.1,3.4c3.1,0,6-1.2,8.1-3.4C118.2,104.2,118.2,96.9,113.7,92.4z"/>
	<linearGradient id="SVGID_14_" gradientUnits="userSpaceOnUse" x1="-50.8802" y1="130.2212" x2="116.6367" y2="130.2212">
		<stop  offset="0" style="stop-color:#E7267A"/>
		<stop  offset="0.5374" style="stop-color:#E7267A"/>
		<stop  offset="1" style="stop-color:#672162"/>
	</linearGradient>
	<path class="st13" d="M75.9,118.7c-3.1,0-6,1.2-8.1,3.4c-2.2,2.2-3.4,5.1-3.4,8.1c0,3.1,1.2,6,3.4,8.1c2.2,2.2,5.1,3.4,8.1,3.4
		c3.1,0,6-1.2,8.1-3.4c2.2-2.2,3.4-5.1,3.4-8.1c0-3.1-1.2-6-3.4-8.1C81.9,119.9,79,118.7,75.9,118.7z"/>
	<linearGradient id="SVGID_15_" gradientUnits="userSpaceOnUse" x1="-50.8802" y1="11.5114" x2="116.6367" y2="11.5114">
		<stop  offset="0" style="stop-color:#E7267A"/>
		<stop  offset="0.5374" style="stop-color:#E7267A"/>
		<stop  offset="1" style="stop-color:#672162"/>
	</linearGradient>
	<path class="st14" d="M76,23c3.1,0,6-1.2,8.1-3.4c4.5-4.5,4.5-11.8,0-16.3C81.9,1.2,79,0,76,0c-3.1,0-6,1.2-8.1,3.4
		c-2.2,2.2-3.4,5.1-3.4,8.1c0,3.1,1.2,6,3.4,8.1C70,21.8,72.9,23,76,23z"/>
	<linearGradient id="SVGID_16_" gradientUnits="userSpaceOnUse" x1="-50.8802" y1="41.1055" x2="116.6367" y2="41.1055">
		<stop  offset="0" style="stop-color:#E7267A"/>
		<stop  offset="0.5374" style="stop-color:#E7267A"/>
		<stop  offset="1" style="stop-color:#672162"/>
	</linearGradient>
	<path class="st15" d="M105.6,52.6c3.1,0,6-1.2,8.1-3.4c4.5-4.5,4.5-11.8,0-16.3c-2.2-2.2-5.1-3.4-8.1-3.4c-3.1,0-6,1.2-8.1,3.4
		c-4.5,4.5-4.5,11.8,0,16.3C99.6,51.4,102.5,52.6,105.6,52.6z"/>
</g>
</svg>
