<?xml version="1.0" encoding="utf-8"?>
<!-- Generator: Adobe Illustrator 24.3.0, SVG Export Plug-In . SVG Version: 6.00 Build 0)  -->
<svg version="1.1" id="Lag_1" xmlns="http://www.w3.org/2000/svg" xmlns:xlink="http://www.w3.org/1999/xlink" x="0px" y="0px"
	 viewBox="0 0 354.3 141.7" style="enable-background:new 0 0 354.3 141.7;" xml:space="preserve">
<style type="text/css">
	.st0{fill:#FFFFFF;}
</style>
<g>
	<path class="st0" d="M167.5,57.2c0,0.7-0.2,0.8-0.9,0.8h-2.3c-0.7,0-0.9-0.1-0.9-0.8V38.6c0-1,0.3-1.2,1.1-1.3
		c1.2-0.2,2.9-0.2,4.9-0.2c2.8,0,4.8,0.4,6.2,1.5c1.3,1,1.9,2.6,1.9,5V44c0,2.4-0.7,4.1-2.1,5.1c-1.5,1.2-3.5,1.6-6.1,1.6h-1.9v6.5
		H167.5z M167.8,40.4c-0.2,0-0.4,0.2-0.4,0.4v6.6h2c2.9,0,4-0.9,4-3.5v-0.4c0-1.3-0.3-2-0.8-2.5c-0.6-0.5-1.4-0.7-3-0.7
		C169,40.3,168.3,40.3,167.8,40.4z"/>
	<path class="st0" d="M186.1,57.2c0,0.6-0.2,0.8-0.9,0.8h-2c-0.7,0-0.9-0.2-0.9-0.8V45.6h-1.6c-0.6,0-0.8-0.2-0.8-0.7v-1.3
		c0-0.5,0.1-0.6,0.6-0.7l1.8-0.3v-1.2c0-3.6,2.2-5.1,7.1-5.1c1.5,0,3.1,0.2,4.1,0.4c0.5,0.1,0.6,0.2,0.5,0.6l-0.3,2
		c-0.1,0.4-0.2,0.5-0.6,0.4c-0.8-0.2-2.1-0.3-3.5-0.3c-2.5,0-3.5,0.5-3.5,2.2v0.9h8.8c0.7,0,0.9,0.2,0.9,0.8v14.1
		c0,0.6-0.2,0.8-0.9,0.8h-2c-0.7,0-0.9-0.2-0.9-0.8V45.6h-5.9L186.1,57.2L186.1,57.2z"/>
	<path class="st0" d="M200,58c-0.8,0-1.1-0.2-1.1-0.9v-0.7c0-0.5,0.1-0.9,0.7-1.7l6-9.2h-5.7c-0.7,0-0.8-0.2-0.8-0.8v-1.6
		c0-0.6,0.1-0.8,0.8-0.8h9.9c0.5,0,0.7,0.1,0.7,0.7v0.8c0,0.6-0.3,1-0.8,1.8l-6,9.2h6.6c0.6,0,0.7,0.2,0.7,0.8v1.6
		c0,0.5-0.2,0.8-0.7,0.8C210.3,58,200,58,200,58z"/>
	<path class="st0" d="M225.9,51.1c0,0.7-0.2,0.9-0.9,0.9h-8c0,1.3,0.3,2.1,0.8,2.6c0.4,0.4,1.3,0.6,2.8,0.6c1.1,0,2.6-0.3,3.5-0.7
		c0.4-0.2,0.7-0.2,0.9,0.5l0.4,1.5c0.1,0.5,0,0.7-0.6,0.9c-1.3,0.5-3,0.8-4.6,0.8c-2.6,0-4.3-0.5-5.4-1.6c-1.2-1.3-1.7-3.1-1.7-6.1
		v-0.9c0-5,1.7-7.7,6.6-7.7c2.2,0,3.5,0.5,4.5,1.4c1.1,1,1.6,2.3,1.6,5.4L225.9,51.1L225.9,51.1z M217.8,45.7
		c-0.6,0.6-0.8,1.7-0.8,3.3h4.7c0.3,0,0.4-0.1,0.4-0.4c0-1.4-0.2-2.3-0.6-2.9c-0.4-0.4-0.9-0.6-1.9-0.6
		C218.8,45.1,218.2,45.3,217.8,45.7z"/>
	<path class="st0" d="M232.5,44.4L232.5,44.4c1.1-1.4,2.1-2.1,4.3-2.1h0.4c0.7,0,0.9,0.1,0.9,0.8v1.7c0,0.5-0.2,0.7-0.9,0.7h-0.6
		c-1.4,0-2.2,0.3-2.6,0.8s-0.7,1.1-0.7,2.7v8.2c0,0.6-0.2,0.8-0.9,0.8h-2c-0.7,0-0.9-0.2-0.9-0.8V43.1c0-0.5,0.2-0.7,0.8-0.7h1.1
		c0.5,0,0.8,0.1,0.8,0.6L232.5,44.4z"/>
</g>
<g>
	<path class="st0" d="M177.5,100.3c-2.2,0-2.4-0.5-2.8-1.7l-1.2-4.4h-10l-1.2,4.4c-0.4,1.3-0.6,1.7-2.8,1.7h-4.6
		c-1.2,0-1.8-0.3-1.8-1.2c0-0.4,0.2-1,0.7-2.9c3-9.9,5.6-19,8.5-27.8c0.6-1.7,1.5-2.4,3.8-2.4h4.8c2.3,0,3.2,0.6,3.8,2.4
		c3,8.8,5.7,17.9,8.6,27.8c0.6,2,0.7,2.5,0.7,2.9c0,0.9-0.6,1.2-1.8,1.2C182.2,100.3,177.5,100.3,177.5,100.3z M172,87.3
		c-0.9-3.3-2.2-8.3-3.2-12h-0.6c-1.1,3.7-2.3,8.6-3.2,12H172z"/>
	<path class="st0" d="M199.3,94c1.4,0,3.3-0.3,4.6-0.7c0.3-0.1,0.6-0.2,1-0.2c0.5,0,0.8,0.4,1,0.9l0.5,2.7c0.1,0.5,0.2,1.1,0.2,1.4
		c0,0.7-0.3,1.1-1.4,1.4c-2.1,0.7-4.8,1.2-7.6,1.2H197c-3.8,0-6.7-1-8.4-2.6c-2.1-2.1-2.7-4.9-2.7-9.1v-3c0-5.2,0.9-7.5,2.7-9.3
		s4.5-2.8,8.7-2.8h0.5c2.8,0,6.1,0.7,8.2,1.7c0.7,0.4,1,0.7,1,1.3c0,0.4-0.2,0.9-0.4,1.6l-1,2.5c-0.3,0.6-0.5,1-1.1,1
		c-0.3,0-0.6-0.1-1-0.3c-1.5-0.6-3.1-1.1-4.7-1.1h-0.2c-1.3,0-2.3,0.3-3,1c-1.1,1.1-1.2,2.5-1.2,4.9v1.8c0,2.4,0.3,3.6,1.1,4.5
		c0.7,0.7,1.7,1.1,3.4,1.1h0.4V94z"/>
	<path class="st0" d="M225.4,98.1c-1.1,1.6-3.6,2.6-6.9,2.6h-0.8c-5.3,0-8.6-2.8-8.6-8.2V92c0-5.9,3.3-7.8,10.4-7.8h0.4
		c1.4,0,2.9,0.1,3.7,0.2v-1.1c0-1.1-0.2-1.8-0.9-2.3c-0.6-0.4-1.4-0.6-3.2-0.6c-1.9,0-4.1,0.4-6.1,0.9c-1.3,0.3-1.6-0.1-1.8-1
		l-0.4-2.8c-0.1-0.4-0.1-0.8-0.1-1.1c0-0.7,0.2-1.1,1.3-1.4c2.2-0.6,5.5-1.2,9.1-1.2c4.2,0,7,0.8,8.7,2.6c1.4,1.4,2,3.5,2,6.6v15.7
		c0,1.1-0.4,1.5-1.8,1.5h-2.5c-1.2,0-1.6-0.3-2-1.2l-0.3-1h-0.2V98.1z M223.6,89.9c-0.6-0.1-1.8-0.2-2.5-0.2h-0.6
		c-2.4,0-3.4,0.4-3.4,2.4v0.2c0,2,1.1,2.4,3,2.4h0.4c1.2,0,2-0.4,2.5-0.8c0.6-0.5,0.7-1.2,0.7-2.6L223.6,89.9L223.6,89.9z"/>
	<path class="st0" d="M251.1,74.8V66c0-1,0.4-1.5,1.8-1.5h4.9c1.4,0,1.7,0.5,1.7,1.5v24.1c0,4.2-0.7,6.3-2.1,7.7
		c-1.9,2.1-4.4,3-9.6,3h-0.9c-4.5,0-6.8-0.8-8.5-2.4c-2-1.7-2.8-4.7-2.8-9v-4.2c0-4.3,0.6-7,2.6-8.9c1.5-1.4,4-2.4,7-2.4h0.6
		c2.1,0,3.8,0.4,4.9,1L251.1,74.8L251.1,74.8z M251.1,84.2c0-1.6-0.2-2.3-0.6-2.8c-0.4-0.5-1.3-0.8-2.5-0.8h-0.5
		c-1.1,0-2,0.3-2.4,0.9c-0.7,0.8-0.7,2.1-0.7,5v2.3c0,2.6,0.1,3.9,0.8,4.7c0.4,0.5,1.3,0.7,2.4,0.7h0.6c1,0,1.7-0.2,2.3-0.7
		c0.5-0.5,0.7-1.4,0.7-2.5v-6.8H251.1z"/>
	<path class="st0" d="M277.3,94c1.7,0,4.3-0.4,5.6-0.7c0.3-0.1,0.6-0.2,1-0.2c0.5,0,0.8,0.4,1,0.9l0.4,2.7c0.1,0.5,0.2,1.1,0.2,1.4
		c0,0.7-0.3,1.1-1.4,1.4c-2.1,0.7-5.4,1.3-8,1.3h-1c-4.2,0-7.4-0.9-9.2-2.7c-2.1-2.1-2.6-4.8-2.6-9.1v-3c0-5.3,1.4-8.2,3.2-9.8
		c1.7-1.5,4.5-2.4,8.3-2.4h0.7c3.8,0,6.6,1.1,8,2.7c1.9,2.1,2.5,4.9,2.5,9.5v2.8c0,1.1-0.5,1.5-1.5,1.5h-12.7v0.4
		c0,2.5,1.2,3.3,4.9,3.3L277.3,94L277.3,94z M277.6,84.7c0.5,0,0.6-0.2,0.6-0.7v-0.8c0-1.1-0.2-1.9-0.5-2.4c-0.5-0.7-1.3-1-2.4-1
		h-0.5c-1,0-1.7,0.2-2.2,0.7c-0.5,0.6-0.8,1.5-0.8,2.9v1.3H277.6z"/>
	<path class="st0" d="M312.9,98.8c0,1-0.4,1.5-1.8,1.5h-4.9c-1.4,0-1.8-0.5-1.8-1.5v-15c0-1.2-0.2-2-0.6-2.4
		c-0.4-0.5-1.3-0.7-2.3-0.7h-0.1c-1.1,0-1.9,0.2-2.3,0.7s-0.6,1.2-0.6,2.4v15c0,1-0.4,1.5-1.8,1.5h-4.9c-1.4,0-1.8-0.5-1.8-1.5v-23
		c0-1.1,0.4-1.5,1.8-1.5h2.5c1.2,0,1.6,0.2,2,1.2l0.3,1h0.2c1.7-1.8,4.1-2.7,7.3-2.7h0.2c3.1,0,5.2,0.6,7,2.4
		c1.7-1.6,4.2-2.4,7.2-2.4h0.2c3.1,0,5.4,0.7,6.7,2.2c1.4,1.5,2,3.4,2,7v15.7c0,1-0.4,1.5-1.8,1.5h-4.9c-1.4,0-1.8-0.5-1.8-1.5v-15
		c0-1.2-0.2-2-0.6-2.4c-0.4-0.5-1.3-0.7-2.3-0.7h-0.1c-1.1,0-1.9,0.2-2.3,0.7s-0.6,1.2-0.6,2.4v15.1H312.9z"/>
	<path class="st0" d="M342.7,109.8c-0.4,0.8-0.8,1.1-1.5,1.1c-0.4,0-1-0.2-1.5-0.4l-2.7-1.2c-1-0.4-1.4-0.8-1.4-1.3
		c0-0.2,0.1-0.5,0.3-0.9c1.1-2.2,2.6-5.1,3.1-6.4c-1.4-0.5-2.4-1.4-3.4-3.6c-2-4.5-4.9-15.5-6-21.2c-0.2-1.1,0.4-1.5,1.6-1.5h4.8
		c1.2,0,1.6,0.2,1.9,1.3c1.1,5.7,2.6,12.7,4.1,17.8h0.3c1.7-4.8,3.4-13,4.1-17.6c0.2-1.1,0.6-1.4,1.7-1.4h4.9c1.2,0,1.6,0.4,1.4,1.6
		C352.9,85.4,348.7,98.6,342.7,109.8z"/>
</g>
</svg>
