<svg xmlns="http://www.w3.org/2000/svg" viewBox="0 0 223.06 242.23"><defs><style>.cls-1{fill:#fff;}</style></defs><g id="Layer_2" data-name="Layer 2"><g id="Layer_1-2" data-name="Layer 1"><g id="Layer_2-2" data-name="Layer 2"><g id="Lag_1" data-name="Lag 1"><path class="cls-1" d="M204.61,152.15c-6.2-2.8-13.2-8.1-16.6-16-3.8-8.6-2.4-18.3.3-24.8h-.1a23.62,23.62,0,0,0,.4-19.8c-5.3-12-19.7-18.6-31.7-13.4s-17,20.3-11.8,32.4a23.64,23.64,0,0,0,14.8,13.2l-.1.1c6.6,2.5,14.6,8.1,18.4,16.7,3.4,7.9,2.6,16.6.4,23a23.66,23.66,0,0,0-1.1,21.2c5.2,12,19.7,18.6,31.7,13.4s17-20.3,11.8-32.4A23.89,23.89,0,0,0,204.61,152.15Z"/></g></g><g id="Layer_2-3" data-name="Layer 2"><g id="Lag_1-2" data-name="Lag 1"><path class="cls-1" d="M96,225.31a16.74,16.74,0,0,1,11.85-.29,16.88,16.88,0,0,1,9,9.1V234a12.2,12.2,0,0,0,7.14,7.33c6.28,2.44,14-.48,16.39-6.78s-1.29-13.59-7.55-16a12.27,12.27,0,0,0-10.19.63v-.07a16.88,16.88,0,0,1-12.77.69,16.68,16.68,0,0,1-8.58-8.19A12.24,12.24,0,0,0,94,203.56c-6.34-2.44-14,.46-16.44,6.76s1.29,13.59,7.59,16A12.21,12.21,0,0,0,96,225.31Z"/></g></g><g id="Layer_2-4" data-name="Layer 2"><g id="Lag_1-3" data-name="Lag 1"><path class="cls-1" d="M59.25,119.85c-3.7-8.52-5.7-20.27-1.87-31.33C61.59,76.4,71.88,68,80.65,63.92l-.2-.06A32.29,32.29,0,0,0,99.16,44.38c5.89-16.85-2.49-36.87-19.35-42.74S44,6.29,38.08,23.15A32.23,32.23,0,0,0,40.67,50l-.2-.07c4.36,8.63,7.21,21.62,3,33.74-3.85,11-12.7,19-20.88,23.39a32.32,32.32,0,0,0-20.73,20.2C-4,144.15,4.37,164.17,21.24,170.05S57.09,165.39,63,148.54A32.25,32.25,0,0,0,59.25,119.85Z"/></g></g></g></g></svg>