<?xml version="1.0" encoding="utf-8"?>
<!-- Generator: Adobe Illustrator 18.1.1, SVG Export Plug-In . SVG Version: 6.00 Build 0)  -->
<svg version="1.1" id="Layer_1" xmlns="http://www.w3.org/2000/svg" xmlns:xlink="http://www.w3.org/1999/xlink" x="0px" y="0px"
	 viewBox="0 0 59 44" enable-background="new 0 0 59 44" xml:space="preserve">
<g>
	<g>
		<path fill="#FFFFFF" d="M57,2H32.3v24.2h12.3c0,0,0.4,6.3-6.1,12.3c2,2.6,2.9,3.3,2.9,3.3S57,34.1,57,20.8S57,2,57,2z"/>
		<path fill="#656565" d="M41.2,43l-0.5-0.4c-0.1-0.1-1-0.8-3-3.5l-0.6-0.7l0.7-0.6c4.6-4.3,5.6-8.7,5.8-10.6H31.3V1H58v19.8
			c0,13.8-15.5,21.6-16.2,21.9L41.2,43z M39.9,38.6c0.8,1,1.4,1.6,1.7,2C44.4,39,56,31.8,56,20.8V3H33.3v22.2h12.3l0.1,0.9
			C45.7,26.4,46,32.5,39.9,38.6z"/>
	</g>
	<g>
		<path fill="#FFFFFF" d="M26.7,2H2v24.2h12.3c0,0,0.4,6.3-6.1,12.3c2,2.6,2.9,3.3,2.9,3.3s15.6-7.7,15.6-21.1S26.7,2,26.7,2z"/>
		<path fill="#656565" d="M10.9,43l-0.5-0.4c-0.1-0.1-1-0.8-3-3.5l-0.6-0.7l0.7-0.6c4.6-4.3,5.6-8.7,5.8-10.6H1V1h26.7v19.8
			c0,13.8-15.5,21.6-16.2,21.9L10.9,43z M9.5,38.6c0.8,1,1.4,1.6,1.7,2c2.9-1.6,14.4-8.8,14.4-19.8V3H3v22.2h12.3l0.1,0.9
			C15.3,26.4,15.6,32.5,9.5,38.6z"/>
	</g>
</g>
</svg>
